<?xml version="1.0" encoding="utf-8"?>
<!-- Generator: Adobe Illustrator 27.5.0, SVG Export Plug-In . SVG Version: 6.00 Build 0)  -->
<svg version="1.1" xmlns="http://www.w3.org/2000/svg" xmlns:xlink="http://www.w3.org/1999/xlink" x="0px" y="0px"
	 viewBox="0 0 1122 1122" style="enable-background:new 0 0 1122 1122;" xml:space="preserve">
<g id="bg">
	<rect style="fill:#FFFFFF;" width="1122" height="1122"/>
</g>
<g id="Objects">
	<g>
		<path style="fill:#FFFFFF;" d="M216.708,564.755c-34.419,27.308-57.848,43.123-132.525,55.219c0,0,7.362,6.836,5.785,6.836
			c-1.578,0-11.044,5.785-11.044,5.785l7.889,3.155l-6.311,6.311l4.207,6.837l-5.785,6.836l7.889,4.733l-6.311,7.889
			c0,0,8.414,2.629,7.362,4.207c-1.052,1.578-6.837,6.837-6.837,6.837s8.94-0.526,7.362,1.052c-1.577,1.578-6.311,5.259-6.311,5.259
			v3.681c0,0,175.122,1.052,248.221-7.362c73.099-8.414,189.846-22.613,189.846-22.613s103.281,4.626,214.038,41.545
			c1.578,0.526,249.798-19.984,249.798-19.984l-3.681-7.888c0,0,5.785-6.836,7.888-6.836c2.104,0,11.57-6.311,9.466-5.259
			c-2.103,1.052-4.207-3.681-4.207-3.681l11.57-7.362l-2.104-5.259l11.569-7.888l4.207-5.259l2.103-2.629l17.355-6.311l9.992-5.785
			l8.414-4.733l4.733-2.104l11.044-5.785l4.733-3.155l-108.333,8.94c0,0-82.039-13.673-133.577-39.968
			c-51.537-26.295-68.046-42.692-73.625-59.426c-0.526-1.578,1.578-5.785,0-9.992c-1.577-4.207-2.104-6.837-2.104-6.837
			l-405.462-84.143l-56.796,14.199l-3.155,14.725C294.014,438.542,280.341,514.27,216.708,564.755z"/>
		<g>
			<path style="fill:#272525;" d="M352.235,406.253c-17.963,5.118-35.865,11.427-53.435,17.763c-0.971,0.35-0.253,1.73,0.637,1.48
				c18.023-5.058,36.303-10.318,53.938-16.596C355.111,408.281,353.826,405.8,352.235,406.253z"/>
			<path style="fill:#272525;" d="M345.817,421.264c-12.941,2.89-25.854,7.046-38.447,11.192c-0.795,0.262-0.198,1.343,0.51,1.184
				c12.984-2.911,26.264-5.956,38.904-10.13C348.292,423.012,347.16,420.964,345.817,421.264z"/>
			<path style="fill:#272525;" d="M352.74,411.596c-0.952,3.452-1.55,7.217-1.929,10.775c-0.132,1.236,1.914,1.825,2.111,0.459
				c0.512-3.537,0.859-7.317,0.806-10.891C353.722,411.485,352.909,410.983,352.74,411.596z"/>
			<path style="fill:#272525;" d="M300.634,432.353c-0.645-0.925-1.33-1.807-2.064-2.665c-0.53-0.62-1.486-0.085-1.003,0.654
				c0.616,0.942,1.271,1.844,1.976,2.722C300.102,433.757,301.181,433.136,300.634,432.353z"/>
			<path style="fill:#272525;" d="M753.321,623.411c-121.867,12.438-244.525-31.132-330.917-118.008
				c-22.859-22.987-42.531-48.65-59.808-76.037c-0.538-0.853-2.143-0.241-1.579,0.733
				c59.966,103.47,168.218,175.055,285.799,193.851c35.407,5.66,71.411,6.629,107.078,3.019
				C756.318,626.724,755.495,623.189,753.321,623.411z"/>
			<path style="fill:#272525;" d="M290.812,440.324c-19.557,40.048-39.46,80.923-69.349,114.469
				c-28.678,32.186-64.645,53.663-107.39,60.148c-0.953,0.145-0.648,1.448,0.229,1.416c40.871-1.476,79.003-26.788,106.183-55.708
				c32.165-34.223,53.03-77.03,73.447-118.813C294.794,440.073,291.726,438.452,290.812,440.324z"/>
			<path style="fill:#272525;" d="M732.263,486.701c-61.723-14.557-124.236-26.27-186.313-39.228
				c-62.003-12.943-123.962-27.695-186.405-38.333c-0.654-0.111-0.67,0.778-0.096,0.921
				c61.523,15.262,124.238,26.592,186.276,39.582c62.05,12.993,124.002,27.31,186.369,38.688
				C733.247,488.541,733.285,486.942,732.263,486.701z"/>
			<path style="fill:#272525;" d="M396.867,434.955c-8.151-2.34-16.498-4.106-24.74-6.101c-0.496-0.12-0.509,0.589-0.073,0.709
				c8.204,2.254,16.389,4.762,24.681,6.667C397.637,436.437,397.645,435.178,396.867,434.955z"/>
			<path style="fill:#272525;" d="M437.963,440.644c-0.348-0.364-0.696-0.729-1.045-1.093c-0.469-0.491-1.152,0.076-0.636,0.568
				c0.365,0.349,0.73,0.698,1.095,1.047C437.725,441.5,438.315,441.013,437.963,440.644z"/>
			<path style="fill:#272525;" d="M714.939,500.184c-80.513-18.641-161.733-34.52-242.607-51.506
				c-0.671-0.141-0.703,0.824-0.099,0.956c80.759,17.715,161.38,36.586,242.49,52.639
				C716.195,502.565,716.252,500.488,714.939,500.184z"/>
			<path style="fill:#272525;" d="M750.205,505.567c-2.503-0.7-5.026-1.297-7.532-1.974c-0.556-0.15-0.565,0.65-0.082,0.797
				c2.504,0.763,4.98,1.603,7.493,2.346C750.881,506.971,750.932,505.769,750.205,505.567z"/>
			<path style="fill:#272525;" d="M1074.137,605.153c-40.434,1.889-80.862,3.882-121.291,5.874c0.136-0.607-0.232-1.419-0.958-1.519
				c-36.252-4.964-70.536-12.677-103.555-29.095c-33.164-16.49-62.481-39.391-87.32-66.784c-0.367-0.404-1.069-0.02-0.683,0.446
				c23.515,28.369,53.161,51.315,85.94,68.034c30.094,15.35,64.788,27.145,98.91,29.289c-8.562,0.423-17.125,0.818-25.686,1.244
				c-51.412,2.556-103.24,3.633-154.502,8.368c-0.75,0.07-0.486,1.093,0.175,1.089c51.548-0.256,103.301-4.17,154.788-6.591
				c51.552-2.424,103.102-4.892,154.646-7.47C1076.58,607.94,1075.902,605.07,1074.137,605.153z"/>
			<path style="fill:#272525;" d="M754.89,629.308c-114.874,22.689-233.046-13.245-329.569-102.006
				c-27.458-25.25-53.106-54.444-75.907-87.275c-0.404-0.583-1.171,0.01-0.734,0.655c79.338,117.098,191.27,188.09,307.525,198.705
				c33.191,3.03,66.666,1.237,99.48-6.365C757.294,632.648,756.346,629.021,754.89,629.308z"/>
			<path style="fill:#272525;" d="M1056.979,611.739c-100.529,8.126-201.067,16.269-301.532,25.156
				c-0.954,0.084-0.63,1.46,0.225,1.397c100.629-7.368,201.21-15.483,301.781-23.613
				C1059.462,614.518,1058.778,611.594,1056.979,611.739z"/>
			<path style="fill:#272525;" d="M1034.469,622.477c-98.473,9.604-196.86,20.693-295.156,31.957
				c-0.579,0.066-0.385,0.904,0.138,0.853c98.489-9.643,197.032-19.474,295.346-30.778
				C1036.177,624.352,1035.715,622.356,1034.469,622.477z"/>
			<path style="fill:#272525;" d="M1033.457,617.788c-51.238,3.245-102.459,9.497-153.568,14.373
				c-51.135,4.878-102.414,9.15-153.408,15.365c-0.603,0.074-0.404,0.926,0.143,0.889c51.287-3.492,102.49-8.938,153.666-13.765
				c51.105-4.82,102.582-8.303,153.506-14.756C1035.222,619.713,1034.753,617.706,1033.457,617.788z"/>
			<path style="fill:#272525;" d="M1013.995,631.628c-96.861,11.261-194.11,20.916-290.651,34.688
				c-0.562,0.08-0.38,0.881,0.134,0.835c97.158-8.71,194.061-21.578,290.955-32.799
				C1016.284,634.136,1015.656,631.434,1013.995,631.628z"/>
			<path style="fill:#272525;" d="M1030.051,638.732c-49.605,4.68-99.116,11.258-148.611,16.994
				c-49.48,5.733-99.193,10.579-148.487,17.766c-0.951,0.139-0.646,1.489,0.229,1.416c49.665-4.151,99.208-10.671,148.727-16.277
				c49.51-5.604,99.224-10.39,148.602-17.048C1032.433,641.323,1031.803,638.567,1030.051,638.732z"/>
			<path style="fill:#272525;" d="M1017.316,651.741c-47.465,4.91-94.841,10.866-142.243,16.348
				c-47.391,5.482-94.857,10.625-142.139,16.993c-0.759,0.102-0.51,1.191,0.182,1.125c47.51-4.546,94.922-10.325,142.338-15.758
				c47.407-5.432,94.896-10.398,142.234-16.403C1019.247,653.849,1018.729,651.594,1017.316,651.741z"/>
			<path style="fill:#272525;" d="M985.062,679.308c-42.994,2.378-85.958,6.431-128.888,9.771
				c-42.899,3.338-85.99,5.827-128.761,10.554c-0.656,0.073-0.435,0.987,0.155,0.962c43.032-1.841,86.04-5.928,128.987-9.154
				c42.933-3.226,86.01-5.748,128.861-9.937C986.915,681.359,986.408,679.234,985.062,679.308z"/>
			<path style="fill:#272525;" d="M735.615,684.084c-73.36-1.101-148.163-5.979-217.684-31.331
				c-59.738-21.784-114.063-60.014-148.727-114.044c-18.792-29.29-30.658-62.611-33.04-97.406c-0.04-0.59-1.011-0.623-0.974,0.031
				c3.484,61.745,37.311,117.047,83.341,156.881c53.333,46.154,121.565,69.299,190.423,79.788
				c42.052,6.406,84.643,8.484,127.134,9.021C738.104,687.05,737.403,684.111,735.615,684.084z"/>
			<path style="fill:#272525;" d="M724.604,669.969c-118.876-8.216-256.152-19.871-332.068-125.282
				c-18.144-25.194-30.465-54.266-33.927-85.222c-0.058-0.52-0.927-0.553-0.863,0.028c6.019,54.48,37.719,101.453,79.89,135.175
				c49.082,39.248,110.19,57.894,171.496,67.378c38.388,5.939,77.233,8.687,115.978,11.063
				C727.256,673.241,726.486,670.099,724.604,669.969z"/>
			<path style="fill:#272525;" d="M743.196,643.116c-120.153,25.596-246.198-14.411-327.629-106.855
				c-20.923-23.753-37.559-50.14-51.917-78.271c-0.25-0.489-1.086-0.325-0.835,0.254
				c47.646,109.505,159.293,184.183,276.891,194.691c35.012,3.128,70.453,0.922,104.719-6.963
				C746.354,645.528,744.926,642.747,743.196,643.116z"/>
			<path style="fill:#272525;" d="M980.037,679.229c-11.987-0.574-23.834,0.094-35.812-1.314c-10.987-1.292-21.636-3.91-32.346-6.59
				c-1.623-0.406-1.557,1.812-0.235,2.267c20.621,7.092,47.067,11.067,68.642,6.49C980.838,679.965,980.448,679.248,980.037,679.229
				z"/>
			<path style="fill:#272525;" d="M1013.579,653.246c-9.037-0.672-18.339-0.869-27.395-0.445c-1.234,0.058-0.76,1.712,0.284,1.761
				c9.007,0.416,18.263,0.241,27.252-0.445C1014.337,654.07,1014.087,653.284,1013.579,653.246z"/>
			<path style="fill:#272525;" d="M1032.2,642.294c-13.272-0.863-26.575-1.612-39.875-1.802c-1.703-0.024-1.087,2.414,0.398,2.469
				c13.196,0.489,26.421,0.427,39.623,0.24C1032.984,643.193,1032.732,642.329,1032.2,642.294z"/>
			<path style="fill:#272525;" d="M1017.261,629.795c-9.887-0.283-19.97-0.926-29.846-0.251c-1.335,0.091-0.801,1.813,0.305,1.888
				c9.854,0.669,19.902,0.054,29.769-0.221C1018.473,631.183,1018.109,629.819,1017.261,629.795z"/>
			<path style="fill:#272525;" d="M1049.602,617.533c-11.18-0.022-22.403,0.645-33.564,1.237c-1.059,0.056-0.694,1.577,0.249,1.543
				c11.148-0.407,22.368-0.739,33.479-1.764C1050.467,618.485,1050.217,617.534,1049.602,617.533z"/>
			<path style="fill:#272525;" d="M311.914,451.636c-9.147,51.143-31.15,97.88-67.783,138.153
				c-36.376,39.99-83.422,69.367-136.892,87.817c-0.666,0.23-0.175,1.103,0.443,0.926
				c107.37-30.657,194.161-125.614,207.672-226.222C315.597,450.497,312.27,449.643,311.914,451.636z"/>
			<path style="fill:#272525;" d="M528.725,658.443c-71.413,9.774-143.186,17.216-215.174,22.201
				c-35.42,2.453-70.885,4.298-106.375,5.614c-36.601,1.358-73.289,1.067-109.87,2.613c-0.726,0.031-0.45,0.939,0.167,0.962
				c36.572,1.368,73.506-0.242,110.062-1.508c35.495-1.228,70.966-3.104,106.388-5.544c71.991-4.959,143.769-12.375,215.187-22.124
				C530.721,660.437,530.176,658.244,528.725,658.443z"/>
			<path style="fill:#272525;" d="M296.359,452.201c-20.316,45.996-42.493,91.551-76.343,129.329
				c-31.264,34.891-71.504,61.689-117.635,71.832c-0.67,0.147-0.161,1.072,0.42,0.975
				c100.713-16.843,159.388-114.756,196.086-200.911C299.51,451.962,297.041,450.656,296.359,452.201z"/>
			<path style="fill:#272525;" d="M300.776,465.697c-25.661,98.978-106.227,176.996-204.121,204.162
				c-1.09,0.302-0.278,1.851,0.697,1.619c76.508-18.208,142.847-72.346,180.355-140.923c11.022-20.152,19.549-41.529,25.352-63.751
				C303.419,465.427,301.154,464.241,300.776,465.697z"/>
			<path style="fill:#272525;" d="M291.971,450.052c-20.676,43.632-40.857,86.93-73.815,122.984
				c-30.281,33.125-71.084,59.004-116.326,64.474c-0.59,0.072-0.394,0.92,0.14,0.871c98.732-9.065,157.489-104.261,192.616-187.063
				C295.229,449.802,292.717,448.476,291.971,450.052z"/>
			<path style="fill:#272525;" d="M105.287,611.569c-0.081-0.529-0.936-0.707-1.033-0.096c-0.18,1.137-0.312,2.208-0.244,3.359
				c0.046,0.788,1.477,1.047,1.531,0.143C105.611,613.804,105.464,612.726,105.287,611.569z"/>
			<path style="fill:#272525;" d="M334.943,425.349c-13.028,4.178-26.899,8.719-39.182,14.918c0.55-1.421,1.123-2.839,1.652-4.263
				c0.769-2.069-2.534-3.854-3.521-1.707c-9.901,21.532-18.517,43.411-29.968,64.234c-11.679,21.238-25.287,41.525-41.705,59.411
				c-15.059,16.405-32.538,30.689-52.018,41.535c-21.38,11.906-43.273,17.181-67.175,21.058c-0.769,0.125-0.504,1.099,0.181,1.125
				c44.341,1.681,88.468-27.273,117.946-57.927c16.59-17.252,30.433-37.015,42.431-57.675c11.837-20.384,22.862-42.057,31.523-64.11
				c13.915-2.827,28.06-8.132,41.303-13.187C338.621,427.918,336.99,424.693,334.943,425.349z"/>
			<path style="fill:#272525;" d="M313.492,440.719c-0.693,4.6-0.954,9.27-1.324,13.904c-0.085,1.067,1.728,1.572,1.815,0.395
				c0.345-4.66,0.798-9.338,0.824-14.013C314.811,440.257,313.624,439.845,313.492,440.719z"/>
			<path style="fill:#272525;" d="M430.358,613.894c-65.239-31.504-106.074-99.003-107.526-170.932
				c-0.008-0.433-0.818-0.64-0.841-0.139c-3.351,72.174,42.115,143.269,107.143,173.564
				C430.949,617.233,432.093,614.732,430.358,613.894z"/>
			<path style="fill:#272525;" d="M99.331,678.009c-5.799,2.172-11.874,4.116-17.408,6.911c-0.735,0.371,0.072,1.404,0.717,1.234
				c5.95-1.565,11.744-4.107,17.486-6.299C101.318,679.399,100.42,677.601,99.331,678.009z"/>
			<path style="fill:#272525;" d="M94.11,687.796c-4.981,0.347-10.402,0.333-15.245,1.608c-0.436,0.115-0.26,0.786,0.133,0.825
				c5.031,0.5,10.372-0.271,15.396-0.672C95.597,689.461,95.188,687.721,94.11,687.796z"/>
			<path style="fill:#272525;" d="M726.118,687.502c-99.549,2.906-199.485-18.005-288.507-63.146
				c-0.498-0.252-0.751,0.466-0.287,0.708c88.895,46.415,188.91,70.145,289.342,65.834
				C728.995,690.797,728.189,687.442,726.118,687.502z"/>
			<path style="fill:#272525;" d="M664.532,670.385c-85.901-9.47-167.543-45.526-232.133-103.022
				c-18.721-16.665-35.842-35.086-51.171-54.912c-0.298-0.385-0.909-0.027-0.596,0.389c52.158,69.3,126.736,120.483,209.874,145.094
				c24.117,7.14,48.804,11.888,73.845,14.205C665.583,672.252,665.672,670.511,664.532,670.385z"/>
			<path style="fill:#272525;" d="M747.83,649.924c-107.25,8.183-215.041-25.577-296.795-96.007
				c-0.432-0.372-0.928,0.234-0.502,0.61c80.333,70.971,190.636,108.26,297.657,97.63
				C749.711,652.006,749.198,649.82,747.83,649.924z"/>
			<path style="fill:#272525;" d="M516.607,655.174c-88.901-33.585-155.459-105.224-188.205-193.643
				c-0.206-0.557-1.051-0.346-0.869,0.264c26.779,89.385,101.315,163.694,188.192,195.55
				C517.309,657.926,518.128,655.749,516.607,655.174z"/>
			<path style="fill:#272525;" d="M762.326,509.97c-1.489-0.513-3-0.909-4.522-1.311c-1.529-0.405-1.685,2.034-0.231,2.232
				c1.6,0.218,3.185,0.438,4.797,0.532C763.365,511.48,762.977,510.194,762.326,509.97z"/>
			<path style="fill:#272525;" d="M760.953,494.79c-1.626-0.954-3.657-1.267-5.471-1.744c-1.953-0.512-3.919-1.131-5.932-1.329
				c-0.921-0.091-1.058,0.94-0.339,1.368c1.767,1.052,3.735,1.752,5.636,2.524c0.811,0.329,1.648,0.722,2.498,1.069
				c0.088,1.639,0.372,3.29,0.542,4.92c0.198,1.906,0.365,3.752,0.917,5.593c0.151,0.505,0.884,0.452,0.995-0.032
				c0.436-1.903,0.4-3.817,0.443-5.758c0.029-1.294,0.125-2.598,0.138-3.895C762.109,497.606,762.357,495.613,760.953,494.79z"/>
			<path style="fill:#272525;" d="M295.798,438.922c-20.112,45.865-44.427,91.722-82.61,125.203
				c-37.781,33.129-83.636,48.341-132.767,54.325c-1.318,0.16-0.842,1.87,0.307,1.906c48.808,1.515,99.049-20.699,135.359-52.364
				c38.897-33.92,63.643-80.335,84.069-126.958C301.257,438.521,296.967,436.255,295.798,438.922z"/>
			<path style="fill:#272525;" d="M339.881,414.52c-0.799,2.096-1.435,4.316-1.973,6.561c-0.219-0.051-0.448-0.067-0.684-0.016
				c-2.16,0.461-4.367,0.98-6.557,1.472c0.392-2.261,0.662-4.545,0.868-6.703c0.051-0.535-0.776-0.914-1.024-0.355
				c-1.081,2.436-2.129,5.088-2.977,7.762c-4.958,1.148-9.935,2.36-14.879,3.726c0.678-2.438,1.316-4.885,1.776-7.365
				c0.107-0.579-0.79-0.902-1.061-0.368c-1.408,2.782-2.567,5.69-3.701,8.607c-1.704,0.491-3.416,0.969-5.1,1.493
				c0.317-2.026,0.583-4.061,0.764-6.036c0.057-0.624-0.993-1.142-1.24-0.43c-0.816,2.355-1.564,4.846-2.199,7.351
				c-2,0.65-4.023,1.271-5.976,1.977c0.433-1.669,0.81-3.357,0.963-5.041c0.18-1.987-3.315-3.713-3.991-1.385
				c-0.79,2.721-1.061,5.609-1.352,8.423c-0.281,2.728-0.77,5.587-0.16,8.288c0.078,0.346,0.615,0.686,0.886,0.313
				c1.553-2.137,2.086-4.868,2.782-7.384c0.141-0.511,0.286-1.029,0.43-1.547c1.917-0.274,3.857-0.655,5.789-0.99
				c-0.208,0.967-0.401,1.932-0.559,2.883c-0.203,1.225,2.032,2.187,2.391,0.83c0.356-1.347,0.604-2.772,0.88-4.178
				c1.41-0.263,2.825-0.577,4.237-0.865c-0.347,0.877-0.691,1.756-1.057,2.622c-0.761,1.806,2.117,3.286,3.078,1.492
				c0.47-0.879,0.873-1.766,1.281-2.675c0.201-0.447,0.073-0.907-0.201-1.279c0.08-0.28,0.16-0.562,0.24-0.842
				c5.003-1.085,9.982-2.315,14.913-3.609c-0.077,0.367-0.186,0.739-0.25,1.103c-0.251,1.428,2.233,2.498,2.769,0.961
				c0.336-0.963,0.62-1.972,0.879-2.998c2.457-0.665,4.912-1.331,7.332-2.015c-0.218,1.072-0.419,2.139-0.61,3.191
				c-0.24,1.322,2.197,2.345,2.571,0.892c1.103-4.291,2.152-8.839,2.466-13.262C341.687,414.247,340.261,413.523,339.881,414.52z"/>
			<path style="fill:#272525;" d="M764.178,629.012c-66.009,7.464-131.164-0.159-192.407-26.6
				c-53.27-22.999-100.775-57.432-142.582-97.397c-24.22-23.152-45.934-48.417-67.646-73.875c-0.892-1.046-2.572-0.115-1.701,1.109
				c34.224,48.1,78.017,91.169,125.776,125.749c48.002,34.755,102.406,61.024,160.803,72.386
				c38.692,7.528,79.471,9.276,118.489,3.166C767.947,633.075,766.974,628.695,764.178,629.012z"/>
			<path style="fill:#272525;" d="M1076.115,599.208c-26.675,0.881-53.416,3.77-80.035,5.729c-26.67,1.963-53.34,3.917-80.01,5.888
				c-26.665,1.97-53.329,3.957-79.986,6.029c-26.573,2.065-53.444,3.249-79.877,6.708c-1.496,0.196-0.993,2.218,0.354,2.197
				c2.576-0.041,5.152-0.121,7.729-0.202c-5.498,0.623-10.982,1.307-16.433,2.132c-1.303,0.197-0.875,1.933,0.31,1.924
				c27.117-0.193,54.46-3.259,81.49-5.316c27.115-2.064,54.226-4.154,81.337-6.266c54.216-4.223,108.433-8.445,162.646-12.703
				c1.219-0.096,1.738-0.886,1.774-1.764c0.459-0.051,0.92-0.092,1.38-0.144C1079.667,603.093,1078.695,599.122,1076.115,599.208z"
				/>
			<path style="fill:#272525;" d="M510.947,653.425c-27.58,3.06-55.025,9.546-82.496,13.658
				c-27.048,4.049-54.171,7.587-81.353,10.612c-54.878,6.108-109.984,10.114-165.159,12.224c-31.482,1.203-62.98,1.631-94.475,2.301
				c-0.872,0.018-0.545,1.224,0.202,1.253c111.172,4.258,223.667-5.219,333.633-21.181c14.225-2.064,28.43-4.273,42.611-6.617
				c15.947-2.635,32.427-4.611,48.04-8.818C513.981,656.311,512.78,653.222,510.947,653.425z"/>
			<path style="fill:#272525;" d="M93.367,676.552c-5.007,1.062-10.18,3.723-14.894,5.708c-1.328,0.56-0.364,2.485,0.899,2.089
				c4.993-1.565,10.778-2.91,15.38-5.412C96.194,678.155,94.589,676.294,93.367,676.552z"/>
			<path style="fill:#272525;" d="M92.723,668.087c-1.788,0.147-3.504,1.098-5.169,1.753c-1.644,0.647-3.364,1.208-4.896,2.096
				c-0.896,0.519-0.093,1.965,0.8,1.851c1.786-0.229,3.513-0.794,5.246-1.272c1.705-0.47,3.714-0.72,5.204-1.685
				C95.205,669.99,94.07,667.977,92.723,668.087z"/>
			<path style="fill:#272525;" d="M89.492,663.729c-1.641,0.188-3.202,0.744-4.786,1.2c-1.684,0.484-3.413,0.881-5.034,1.551
				c-1.071,0.442-0.508,1.976,0.563,1.92c1.769-0.092,3.522-0.466,5.27-0.745c1.618-0.258,3.321-0.377,4.873-0.902
				C92.106,666.167,91.142,663.54,89.492,663.729z"/>
			<path style="fill:#272525;" d="M93.171,657.107c1.068-1.211,0.109-3.675-1.893-3.473c-1.768,0.178-3.782,0.187-5.544,0.695
				c-1.112,0.139-2.225,0.267-3.336,0.418c-2.39,0.325-2.157,3.449-0.022,4.01c-0.196,0.048-0.396,0.074-0.591,0.128
				c-1.328,0.367-0.406,2.023,0.609,2.08c3.528,0.201,7.053-0.487,10.57-0.231C95.227,660.899,94.814,657.843,93.171,657.107z"/>
			<path style="fill:#272525;" d="M90.526,647.378c-3.865-0.13-7.857,0.323-11.716,0.59c-1.694,0.117-1.017,2.301,0.386,2.396
				c3.921,0.265,7.979,0.724,11.906,0.59C93.595,650.869,92.661,647.45,90.526,647.378z"/>
			<path style="fill:#272525;" d="M89.985,640.258c-0.442-0.327-0.891-0.643-1.348-0.948c-1.065-0.73-2.575-0.17-2.855,0.797
				c-3.845,0.51-7.706,0.905-11.534,1.546c-1.384,0.232-0.445,2.174,0.641,2.187c4.756,0.058,9.505-0.312,14.259-0.293
				C90.904,643.554,91.271,641.187,89.985,640.258z"/>
			<path style="fill:#272525;" d="M96.057,633.342c-0.735-0.165-1.481-0.285-2.22-0.435c0.382-1.159-0.874-2.819-2.267-2.891
				c-3.114-0.16-6.354,0.429-9.445,0.814c-2.336,0.29-2.335,3.279-0.486,4.119c-0.672,0.094-1.347,0.168-2.015,0.288
				c-1.384,0.249-0.412,2.112,0.63,2.152c5.304,0.203,10.617-0.468,15.918-0.269C98.6,637.211,97.982,633.775,96.057,633.342z"/>
			<path style="fill:#272525;" d="M89.486,623.965c-3.573,0.024-7.463,0.827-10.962,1.538c-1.43,0.291-0.476,2.278,0.666,2.276
				c3.64-0.004,7.629-0.017,11.202-0.721C92.331,626.677,91.045,623.954,89.486,623.965z"/>
			<path style="fill:#272525;" d="M92.762,619.94c-3.178,0.358-6.694,0.494-9.723,1.584c-0.546,0.197-0.369,1.021,0.176,1.089
				c3.251,0.403,6.665-0.13,9.907-0.44C94.645,622.027,94.122,619.787,92.762,619.94z"/>
			<path style="fill:#272525;" d="M735.523,682.123c-4.262,0.84-8.574,2.278-12.667,3.726c-1.027,0.364-0.471,1.986,0.536,1.831
				c4.43-0.681,9.051-1.446,13.337-2.754C738.638,684.344,737.186,681.796,735.523,682.123z"/>
			<path style="fill:#272525;" d="M731.62,678.997c-2.496-0.019-4.995,0.095-7.49,0.163c-1.589,0.043-1.002,2.25,0.369,2.287
				c2.513,0.068,5.029,0.182,7.542,0.163C733.84,681.598,733.206,679.009,731.62,678.997z"/>
			<path style="fill:#272525;" d="M734.747,699.116c-47.626-0.462-93.535-7.207-138.482-23.47c-0.713-0.258-1.081,0.693-0.398,0.981
				c43.521,18.308,92.131,28.536,139.506,26.374C738.064,702.878,737.09,699.139,734.747,699.116z"/>
			<path style="fill:#272525;" d="M977.436,676.627c-24.975-0.324-48.224-3.864-72.607-8.921c-0.68-0.141-0.874,0.824-0.263,1.064
				c22.656,8.916,49.161,12.418,73.438,11.379C980.445,680.045,979.558,676.655,977.436,676.627z"/>
			<path style="fill:#272525;" d="M988.228,669.343c-6.03,0.105-12.202-0.197-18.205,0.334c-1.561,0.138-0.924,2.091,0.354,2.197
				c6.042,0.498,12.237,0.183,18.302,0.266C990.578,672.164,989.949,669.313,988.228,669.343z"/>
			<path style="fill:#272525;" d="M989.288,665.94c-2.468-0.042-4.98,0.274-7.437,0.49c-0.741,0.066-0.922,0.581-0.77,1.071
				c-19.583,2.985-38.245,1.913-57.997-0.927c-0.814-0.117-0.78,0.898-0.115,1.116c20.343,6.683,43.22,6.604,64.068,2.504
				c0.856-0.168,1.155-0.734,1.091-1.358c0.546,0.019,1.095,0.073,1.638,0.064C991.81,668.864,991.073,665.97,989.288,665.94z"/>
			<path style="fill:#272525;" d="M1000.027,659.678c-4.604,0.211-9.329,0.754-13.884,1.461c-1.459,0.227-0.967,2.119,0.346,2.142
				c4.64,0.083,9.427-0.012,14.05-0.426C1002.712,662.66,1001.97,659.589,1000.027,659.678z"/>
			<path style="fill:#272525;" d="M1009.75,646.834c-5.708,0.784-12.057,2.598-17.425,4.665c-1.253,0.482-0.597,2.406,0.661,2.258
				c5.723-0.669,12.249-1.911,17.659-3.865C1012.359,649.274,1011.438,646.602,1009.75,646.834z"/>
			<path style="fill:#272525;" d="M1021.098,639.087c-2.692,0.906-5.312,2.063-7.956,3.101c-2.326,0.913-4.87,1.639-6.842,3.215
				c-0.511,0.409-0.104,1.197,0.509,1.178c2.574-0.082,4.99-1.079,7.421-1.864c2.714-0.876,5.483-1.643,8.15-2.652
				C1024.307,641.336,1022.876,638.489,1021.098,639.087z"/>
			<path style="fill:#272525;" d="M1057.536,611.054c-10.241,2.989-20.231,7.148-30.253,10.807
				c-1.122,0.409-1.402,1.276-1.204,2.113c-3.396,1.281-6.797,2.549-10.185,3.85c-0.496,0.19-0.783,0.491-0.976,0.825
				c-1.087,0.319-2.181,0.614-3.261,0.955c-1.937,0.479-0.475,3.161,1.22,2.836c1.181-0.227,2.351-0.5,3.526-0.751
				c0.368,0.117,0.76,0.174,1.181,0.067c3.465-0.881,6.932-1.756,10.391-2.663c0.969-0.219,1.263-0.908,1.146-1.634
				c3.641-1.361,7.286-2.71,10.927-4.07c0.956-0.357,1.297-1.047,1.254-1.759c6.028-2.103,12.04-4.266,17.85-6.814
				C1061.529,613.774,1059.827,610.385,1057.536,611.054z"/>
			<path style="fill:#272525;" d="M993.368,610.016c-45.944-2.518-91.141-12.513-133.56-30.449
				c-20.91-8.841-41.057-19.494-60.102-31.853c-14.943-9.698-33.334-22.468-37.344-40.662c-0.007-0.162-0.014-0.323-0.021-0.485
				c1.791-2.329,1.606-5.593-0.656-8.132c-0.004-0.073-0.01-0.147-0.014-0.22c0.07-0.554,0.139-1.108,0.209-1.662
				c2.312-0.086,2.275-3.645-0.157-4.17c-107.946-23.311-216.295-44.962-324.472-67.177c-30.817-6.328-61.665-12.43-92.57-18.3
				c-1.611-0.306-1.675,1.962-0.236,2.285c0.549,0.123,1.099,0.242,1.648,0.365c-17.563,3.169-35.479,8.925-52.377,14.449
				c-2.45,0.801-0.63,4.29,1.589,3.691c17.656-4.764,36.447-9.852,53.194-17.22c0.178-0.078,0.26-0.196,0.319-0.317
				c106.348,23.817,213.285,45.099,319.993,67.237c30.018,6.228,60.003,12.665,90.068,18.661c-0.136,0.169-0.253,0.362-0.282,0.637
				c-0.143,1.341-0.199,2.658-0.195,3.957c-0.467,2.015-0.929,4.03-1.409,6.042c-0.28,1.175,1.275,2.4,2.379,2.041
				c0.078,1.27,0.145,2.54,0.239,3.809c0.06,0.814,0.683,1.259,1.344,1.348c4.635,11.937,14.906,21.719,25.278,29.379
				c19.805,14.627,41.903,26.657,64.316,36.743c45.12,20.304,94.052,32.139,143.501,34.215
				C996.937,614.349,995.896,610.155,993.368,610.016z"/>
			<path style="fill:#272525;" d="M309.075,438.061c0.021-0.099,0.048-0.197,0.07-0.295c0.326-1.496-2.44-2.635-2.909-1.01
				c-8.766,30.359-20.507,57.684-39.057,83.506c-0.62,0.864,0.777,2.035,1.438,1.185c16.046-20.654,29.352-44.914,37.018-70.277
				c-6.229,29.939-24.316,58.068-41.098,82.775c-18.457,27.175-39.905,52.085-63.936,74.477c-0.924,0.861,0.775,2.244,1.703,1.404
				c25.716-23.281,48.769-49.592,67.963-78.514c17.947-27.042,37.744-58.39,40.245-91.51
				C310.58,438.898,309.842,438.238,309.075,438.061z"/>
			<path style="fill:#272525;" d="M245.943,533.18c-33.966,52.792-86.906,87.34-147.965,100.355
				c-0.612,0.13-0.249,1.113,0.302,1.033c60.976-8.876,117.351-47.651,149.756-99.662
				C248.851,533.598,246.786,531.87,245.943,533.18z"/>
			<path style="fill:#272525;" d="M242.807,550.081c-41.283,46.564-89.52,95.083-155.839,97.478
				c-1.163,0.042-0.761,1.721,0.273,1.694c66.198-1.732,117.129-50.006,157.519-97.563
				C245.703,550.58,243.773,548.992,242.807,550.081z"/>
			<path style="fill:#272525;" d="M219.335,590.993c-38.493,32.585-75.303,66.368-127.634,72.525
				c-0.755,0.089-0.503,1.145,0.179,1.111c50.655-2.565,93.893-38.647,128.866-72.159
				C221.504,591.744,220.115,590.333,219.335,590.993z"/>
			<path style="fill:#272525;" d="M299.221,497.946c-39.238,86.565-117.042,153.54-208.168,180.145
				c-0.937,0.273-0.243,1.647,0.606,1.408c92.331-25.892,169.949-93.406,209.027-180.843
				C301.061,497.815,299.625,497.056,299.221,497.946z"/>
			<path style="fill:#272525;" d="M424.473,609.332c-28.228-22.813-56.647-45.511-74.211-78.02
				c-16.736-30.977-22.116-65.171-19.228-99.984c0.039-0.46-0.706-0.682-0.787-0.172c-5.432,34.069,1.976,70.439,18.035,100.758
				c17.337,32.731,46.022,56.722,74.853,79.041C424.329,611.878,425.657,610.289,424.473,609.332z"/>
			<path style="fill:#272525;" d="M460.43,621.704c-68.843-43.368-111.497-118.158-113.961-199.497
				c-0.015-0.505-0.888-0.769-0.883-0.192c0.594,82.115,44,158.884,114.004,201.758C460.986,624.627,461.7,622.504,460.43,621.704z"
				/>
			<path style="fill:#272525;" d="M495.085,622.151c-57.889-40.627-124.106-87.533-128.086-165.172
				c-0.027-0.533-1.042-0.703-1.033-0.096c1.077,77.036,69.821,128.225,127.816,166.849
				C494.986,624.534,496.31,623.01,495.085,622.151z"/>
			<path style="fill:#272525;" d="M650.314,639.446c-63.944-9.22-121.042-40.488-171.312-79.946
				c-24.343-19.107-47.244-40.001-69.64-61.334c-22.395-21.332-43.893-44.26-53.985-74.126c-0.263-0.777-1.448-0.479-1.201,0.365
				c6.502,22.246,20.236,40.931,35.84,57.719c16.553,17.809,34.61,34.384,52.767,50.532c38.261,34.029,79.784,65.109,126.862,85.869
				c25.649,11.311,52.611,19.453,80.459,22.96C651.539,641.666,651.631,639.636,650.314,639.446z"/>
			<path style="fill:#272525;" d="M178.35,677.659c-5.109,0.804-10.186,1.376-15.335,1.885c-0.948,0.093-0.702,1.243,0.044,1.464
				c0.207,0.062,0.41,0.129,0.617,0.191c-1.226-0.178-2.452-0.363-3.677-0.534c-0.688-0.096-0.719,0.84-0.101,0.973
				c4.084,0.879,8.183,1.761,12.316,2.368c0.968,0.142,0.951-1.094,0.139-1.339c-1.764-0.533-3.481-1.17-5.212-1.77
				c3.955-0.164,7.823-0.472,11.782-1.285C180.081,679.375,179.396,677.494,178.35,677.659z"/>
			<path style="fill:#272525;" d="M188.391,672.215c-4.262-0.445-8.584-0.578-12.865-0.77c-0.722-0.032-0.604,1.102,0.036,1.172
				c4.274,0.465,8.583,1.005,12.878,1.216C189.436,673.883,189.277,672.308,188.391,672.215z"/>
			<path style="fill:#272525;" d="M197.066,672.691c-3.797-1.264-7.793-2.067-11.683-3c-0.904-0.217-0.919,1.063-0.133,1.286
				c3.852,1.092,7.738,2.357,11.672,3.111C197.936,674.281,197.887,672.964,197.066,672.691z"/>
			<path style="fill:#272525;" d="M204.929,667.922c-3.94-0.431-7.907-0.684-11.868-0.811c-0.648-0.021-0.529,0.96,0.032,1.041
				c3.941,0.571,7.91,1.026,11.883,1.294C205.911,669.51,205.762,668.013,204.929,667.922z"/>
			<path style="fill:#272525;" d="M220.543,665.697c-5.116-1.203-10.43-1.998-15.633-2.743c-0.755-0.108-0.782,0.908-0.11,1.065
				c5.128,1.196,10.378,2.391,15.593,3.129C221.422,667.294,221.458,665.912,220.543,665.697z"/>
			<path style="fill:#272525;" d="M229.368,659.71c-5.441-0.734-11.273-0.699-16.759-0.654c-0.632,0.005-0.529,0.956,0.031,1.023
				c5.463,0.656,11.281,1.377,16.777,1.249C230.418,661.305,230.252,659.83,229.368,659.71z"/>
			<path style="fill:#272525;" d="M236.977,657.594c-3.901-0.134-7.793-0.003-11.692,0.113c-0.93,0.028-0.585,1.313,0.216,1.337
				c3.912,0.116,7.816,0.249,11.729,0.113C238.318,659.119,237.91,657.627,236.977,657.594z"/>
			<path style="fill:#272525;" d="M255.032,636.209c-2.778,0.707-5.525,1.52-8.281,2.311c-0.811,0.233-0.714,1.228-0.189,1.69
				c1.016,0.894,2.036,1.782,3.053,2.674c-4.298-0.276-10.913-1.341-12.762,2.501c-2.339-0.398-4.805,0.043-7.146,1.386
				c-0.505,0.29-0.42,1.133,0.035,1.427c1.391,0.903,2.784,1.803,4.176,2.705c-2.227-0.023-4.453-0.054-6.681-0.026
				c-0.939,0.012-0.571,1.287,0.215,1.337c3.158,0.199,6.315,0.326,9.477,0.445c0.796,0.03,0.988-1.11,0.385-1.51
				c-1.744-1.156-3.495-2.303-5.246-3.451c1.384-0.604,2.823-0.781,4.315-0.56c-0.006,0.069-0.028,0.124-0.032,0.195
				c-0.219,3.606,4.379,5.737,6.559,2.629c0.35-0.499,0.164-1.012-0.228-1.417c-1.155-1.191-2.457-2.028-3.828-2.579
				c2.271-1.445,4.699-1.875,7.3-1.197c2.238,0.297,4.059,0.517,6.341,0.217c0.973-0.128,1.173-1.208,0.465-1.824
				c-1.238-1.077-2.496-2.129-3.75-3.186c2.216-0.61,4.435-1.208,6.631-1.888C257.095,637.698,256.161,635.921,255.032,636.209z"/>
			<path style="fill:#272525;" d="M263.544,631.136c-5.127-0.961-10.441-1.285-15.631-1.786c-1.016-0.098-1.095,1.306-0.15,1.451
				c5.235,0.804,10.548,1.807,15.836,2.139C264.735,633.011,264.489,631.313,263.544,631.136z"/>
			<path style="fill:#272525;" d="M272.105,625.487c-3.891-0.054-7.783,0.11-11.67,0.293c-0.777,0.037-0.481,1.084,0.179,1.111
				c3.913,0.157,7.834,0.296,11.752,0.215C273.485,627.083,273.082,625.501,272.105,625.487z"/>
			<path style="fill:#272525;" d="M280.351,619.557c-2.866-1.222-6.037-1.951-9.023-2.83c-0.796-0.234-1.03,0.994-0.312,1.262
				c2.922,1.089,5.909,2.424,8.941,3.163C280.984,621.403,281.236,619.935,280.351,619.557z"/>
			<path style="fill:#272525;" d="M279.177,612.561c-3.213-0.779-6.514-1.252-9.766-1.84c-0.883-0.159-0.915,1.069-0.129,1.249
				c3.232,0.74,6.463,1.605,9.734,2.152C280.123,614.307,280.154,612.797,279.177,612.561z"/>
			<path style="fill:#272525;" d="M286.757,606.905c-3.25,0.325-6.489,0.742-9.724,1.193c-0.686,0.096-0.464,1.055,0.164,1.016
				c3.268-0.199,6.535-0.433,9.794-0.759C287.978,608.255,287.642,606.816,286.757,606.905z"/>
			<path style="fill:#272525;" d="M292.607,597.114c-3.963,0.4-7.959,1.228-11.838,2.113c-0.695,0.159-0.276,1.227,0.34,1.162
				c3.967-0.422,8.031-0.926,11.919-1.836C293.889,598.351,293.369,597.037,292.607,597.114z"/>
			<path style="fill:#272525;" d="M297.513,593.378c-3.956,0.224-7.897,1.494-11.802,2.138c-0.609,0.1-0.162,0.993,0.389,0.903
				c3.881-0.64,7.999-0.688,11.792-1.75C298.667,594.452,298.193,593.339,297.513,593.378z"/>
			<path style="fill:#272525;" d="M300.581,591.647c-4.216-0.471-8.584-0.871-12.825-0.83c-0.573,0.005-0.458,0.826,0.028,0.911
				c4.196,0.737,8.586,1.079,12.84,1.314C301.482,593.089,301.342,591.732,300.581,591.647z"/>
			<path style="fill:#272525;" d="M307.463,581.582c-3.377,4.439-9.449,4.473-11.889-1.013c-0.188-0.422-1-0.425-0.881,0.144
				c1.426,6.824,11.289,8.476,14.304,1.854C309.372,581.742,308.041,580.823,307.463,581.582z"/>
			<path style="fill:#272525;" d="M310.157,578.354c-4.05-0.34-8.6-0.48-12.632,0.061c-0.533,0.071-0.48,0.807,0.027,0.893
				c4.089,0.692,8.715,0.76,12.85,0.571C311.488,579.829,311.039,578.428,310.157,578.354z"/>
			<path style="fill:#272525;" d="M312.268,570.131c-3.208-0.772-6.526-1.211-9.789-1.695c-0.614-0.091-0.63,0.731-0.089,0.863
				c3.217,0.786,6.468,1.638,9.743,2.136C313.059,571.576,313.086,570.328,312.268,570.131z"/>
			<path style="fill:#272525;" d="M321.749,559.215c-2.937,0.612-5.85,1.269-8.756,2.015c-0.729,0.187-0.176,1.185,0.458,1.065
				c2.956-0.557,5.883-1.196,8.81-1.889C323.069,560.216,322.468,559.065,321.749,559.215z"/>
			<path style="fill:#272525;" d="M323.832,545.367c-1.617,0.024-3.229,0.096-4.84,0.245c-0.764,0.07-0.449,1.017,0.173,1.073
				c1.637,0.146,3.276,0.221,4.919,0.245C325.145,546.945,324.793,545.353,323.832,545.367z"/>
			<path style="fill:#272525;" d="M321.909,538.714c-0.826,0-0.541,1.205,0.194,1.205
				C322.928,539.919,322.643,538.714,321.909,538.714z"/>
			<path style="fill:#272525;" d="M252.608,673.313c-3.582,0.295-7.154,0.608-10.714,1.108c-0.738,0.103-0.498,1.12,0.176,1.091
				c3.598-0.152,7.174-0.488,10.756-0.844C253.75,674.576,253.438,673.244,252.608,673.313z"/>
			<path style="fill:#272525;" d="M239.013,676.415c-1.42-0.264-2.835-0.571-4.252-0.86c-3.304-2.157-7.163-3.103-11.119-2.48
				c-0.857,0.135-0.786,1.298,0.044,1.451c3.074,0.564,6.137,1.213,9.193,1.9c0.026,0.01,0.034,0.036,0.063,0.042
				c0.087,0.02,0.174,0.039,0.261,0.06c0.512,0.287,1.03,0.544,1.529,0.894c0.531,0.374,1.05,0.139,1.268-0.252
				c0.956,0.221,1.911,0.447,2.868,0.659C239.852,678.047,239.918,676.583,239.013,676.415z"/>
			<path style="fill:#272525;" d="M253.717,669.681c-4.162-0.903-8.448-1.489-12.675-1.992c-0.894-0.106-0.943,1.099-0.131,1.267
				c4.171,0.866,8.424,1.674,12.66,2.139C254.569,671.205,254.622,669.878,253.717,669.681z"/>
			<path style="fill:#272525;" d="M262.379,661.677c-3.564-0.165-7.15,0.034-10.715,0.122c-0.666,0.016-0.422,0.946,0.155,0.96
				c1.022,0.025,2.049,0.057,3.074,0.09c-2.059-0.013-4.117,0.002-6.177,0.033c-0.845,0.013-0.542,1.212,0.197,1.224
				c2.93,0.046,5.855,0.095,8.785,0.013c0.822-0.023,0.557-1.082-0.111-1.204c1.664,0.033,3.328,0.046,4.987-0.032
				C263.418,662.842,263.093,661.71,262.379,661.677z"/>
			<path style="fill:#272525;" d="M274.283,652.77c-2.428,2.397-5.523,3.337-8.564,2.916c-0.829-2.17-3.623-3.478-5.767-2.03
				c-0.423,0.285-0.295,0.828,0.027,1.126c1.147,1.061,2.453,1.813,3.828,2.279c0.582,0.855,0.224,1.563-1.141,2.113
				c-1.595,1.343-3.483,1.443-5.665,0.299c-1.394-0.475-2.705-1.443-3.935-2.215c-0.529-0.331-0.988,0.482-0.498,0.837
				c3.247,2.348,11.56,6.371,13.283-0.187c0.033-0.126,0.014-0.244,0.034-0.368c3.522,0.451,7.216-0.831,9.772-3.637
				C276.354,653.139,275.001,652.06,274.283,652.77z"/>
			<path style="fill:#272525;" d="M282.679,642.085c-3.618,0.855-7.186,1.844-10.758,2.873c-0.837,0.241-0.41,1.247,0.277,1.409
				c-1.981,0.072-3.958,0.192-5.905,0.439c-0.938,0.119-0.575,1.28,0.215,1.337c4.206,0.305,8.508,0.067,12.719-0.071
				c1.268-0.042,0.827-1.866-0.297-1.845c-2.012,0.038-4.047,0.053-6.081,0.116c3.493-0.902,6.965-1.833,10.412-2.903
				C284.17,643.157,283.491,641.893,282.679,642.085z"/>
			<path style="fill:#272525;" d="M297.338,638.23c-4.182,1.491-8.486,0.846-12.126-1.674c-0.506-0.35-0.991,0.23-0.544,0.66
				c1.107,1.063,2.389,1.848,3.75,2.41c-4.241,0.931-8.203,0.695-12.163-1.883c-0.504-0.328-1.015,0.24-0.544,0.66
				c4.044,3.605,10.692,5.026,15.524,2.033c0.005-0.003,0.003-0.009,0.008-0.012c2.22,0.336,4.536,0.087,6.694-0.802
				C298.822,639.256,298.167,637.935,297.338,638.23z"/>
			<path style="fill:#272525;" d="M310.143,632.069c-6.125-0.244-12.351-0.16-18.475,0.096c-0.666,0.028-0.397,0.901,0.152,0.941
				c6.159,0.444,12.424,0.73,18.6,0.676C311.61,633.771,311.166,632.11,310.143,632.069z"/>
			<path style="fill:#272525;" d="M314.242,629.578c-4.44-0.953-9.299-1.366-13.835-1.591c-0.631-0.031-0.473,0.874,0.03,0.985
				c4.465,0.986,9.283,1.875,13.852,2.13C315.261,631.158,315.025,629.746,314.242,629.578z"/>
			<path style="fill:#272525;" d="M314.767,622.701c-3.514,2.052-7.255,2.673-11.07,0.964c-0.71-0.318-1.042,0.644-0.4,0.984
				c3.846,2.033,8.872,2.032,12.374-0.743C316.381,623.343,315.505,622.27,314.767,622.701z"/>
			<path style="fill:#272525;" d="M328.716,600.913c-3.441-4.927-9.207-0.893-8.972,3.303c-2.497-0.435-5.19,0.441-6.23,3.06
				c-0.512,1.292-0.441,2.528-0.036,3.64c-0.37,0.142-0.739,0.305-1.1,0.512c-0.951,0.547,0.081,2.126,1.007,1.734
				c2.505,3.646,1.833,5.418-2.014,5.316c-1.511-0.11-3.005-0.327-4.482-0.651c-0.75-0.145-0.707,0.824-0.107,1.028
				c3.495,1.191,9.717,2.172,11.154-2.634c0.133-0.445,0.174-0.877,0.162-1.296c0.977,0.256,1.997,0.324,2.974,0.096
				c0.75-0.176,0.799-1.103,0.425-1.623c-1.414-1.966-3.465-2.973-5.612-2.948c-0.559-1.505-0.239-3.25,1.569-4.018
				c1.042-0.442,2.154-0.316,3.123,0.14c0.503,0.696,1.234,1.347,2.261,1.9c1.059,0.571,1.75-0.63,1.232-1.495
				c-0.584-0.976-1.484-1.708-2.512-2.202c-1-2.341,3.792-4.327,5.781-2.637C328.225,602.888,329.393,601.882,328.716,600.913z"/>
			<path style="fill:#272525;" d="M360.053,562.376c-6.198-0.962-11.427,3.5-12.142,9.385c-3.973-1.892-7.118,3.074-5.22,6.1
				c-2.046,0.128-4.091,0.268-6.13,0.471c-0.924,0.093-0.909,1.229-0.169,1.601c1.423,0.641,2.752,1.445,3.986,2.411
				c4.426,3.152,3.638,6.154-2.291,9.008c-2.407-0.346-4.817-0.662-7.238-0.901c-0.832-0.081-0.868,0.992-0.121,1.176
				c2.164,0.533,4.341,1.006,6.525,1.45c1.627,1.303,3.672,1.661,5.399,0.998c0.368,0.005,0.627-0.151,0.775-0.395
				c1-0.614,1.835-1.586,2.27-3.014c1.432-4.7-2.55-8.142-6.227-10.635c2.479-0.003,4.96-0.044,7.439-0.081
				c1.413-0.021,1.201-2.181-0.07-2.302c0.408-1.063,0.816-2.125,1.224-3.188c0.735,0.793,2.202,0.69,2.094-0.641
				c-0.485-5.967,4.23-10.077,9.947-9.771C361.147,564.105,360.948,562.514,360.053,562.376z"/>
			<path style="fill:#272525;" d="M315.055,667.391c-5.856-0.105-11.709-0.062-17.566,0c-0.522,0.005-0.678,0.387-0.592,0.763
				c-0.914,0.009-0.944,1.299-0.028,1.488c0.461,0.096,0.919,0.214,1.38,0.314c-3.505-0.268-7.012-0.458-10.49-0.434
				c-0.701,0.005-0.56,1.012,0.034,1.115c7.407,1.298,15.072,1.71,22.569,2.305c0.72,0.057,0.87-0.571,0.692-1.128
				c0.046,0.006,0.092,0.014,0.138,0.02c1.086,0.131,1.153-1.361,0.16-1.543c-2.898-0.532-5.815-0.964-8.735-1.378
				c4.226,0.03,8.452,0.041,12.678-0.034C316.323,668.86,315.951,667.407,315.055,667.391z"/>
			<path style="fill:#272525;" d="M333.608,663.242c-4.798,0.091-9.623,0.265-14.439,0.519c-4.914-0.226-9.934,0.029-14.829,0.18
				c-0.853,0.026-0.533,1.198,0.197,1.224c5.482,0.19,11.139,0.559,16.613,0.176c0.065-0.005,0.076-0.049,0.129-0.063
				c4.207-0.068,8.414-0.199,12.595-0.38C335.014,664.85,334.617,663.223,333.608,663.242z"/>
			<path style="fill:#272525;" d="M330.613,642.482c-4.385,1.038-8.594,5.701-6.859,10.46c0.11,0.303,0.266,0.602,0.451,0.889
				c-2.819,0.411-5.638,0.82-8.455,1.249c-1.018,0.155-0.797,1.351,0.049,1.609c3.374,1.032,6.73,2.122,10.09,3.195
				c-0.934,0.034-1.869,0.036-2.803,0.098c-0.736,0.049-0.563,1.003,0.035,1.151c0.908,0.214,1.811,0.447,2.709,0.701
				c0.393,0.106,0.544-0.338,0.368-0.607c1.493,0.043,2.985,0.104,4.48,0.122c1.089,0.013,0.693-1.358-0.049-1.603
				c-3.666-1.21-7.358-2.341-11.041-3.5c2.062-0.262,4.123-0.527,6.184-0.801c1.51,1.047,3.479,1.35,4.906-0.104
				c1.483,1.528,3.707,2.399,5.787,1.906C346.636,654.837,339.954,640.269,330.613,642.482z M338.482,653.428
				c-6.274-4.411-6.931-5.791-1.968-4.139c1.032,0.798,2.192-0.592,1.156-1.402c-2.723-2.129-7.179-1.494-8.371,2.031
				c-0.168-0.041-0.324-0.103-0.509-0.111c-1.396-0.058-2.151,0.719-2.397,1.701c-2.524-3.688,3.142-7.72,7.108-7.25
				c2.452,0.291,5.991,2.085,6.001,5.142L338.482,653.428z"/>
			<path style="fill:#272525;" d="M364.818,629.294c-3.246-0.028-6.529,0.233-9.791,0.492c-0.798-1.06-2.004-1.839-3.39-1.936
				c-5.419-0.378-6.897,5.698-5.867,9.841c0.156,0.627,1.189,0.729,1.105-0.036c-0.261-2.388-0.312-6.162,2.36-7.439
				c0.222,0.081,0.389,0.145,0.596,0.221c-0.54,0.293-0.883,0.811-0.915,1.816c-0.101,3.09,4.176,5.221,6.213,2.645
				c0.794-1.005,0.978-2.153,0.766-3.23c3.065-0.195,6.151-0.343,9.178-0.794C366.15,630.715,365.787,629.302,364.818,629.294z"/>
			<path style="fill:#272525;" d="M376.068,618.83c0.053-0.382-0.038-0.805-0.411-1.146c-0.751-0.687-1.503-1.374-2.254-2.062
				c-0.891-0.815-2.337,0.328-1.568,1.279c-4.158-0.639-8.329-1.218-12.495-1.767c-1.163-0.153-1.79,1.226-0.811,1.968
				c1.239,0.938,2.544,1.721,3.895,2.359c-1.474,0.059-2.95,0.114-4.419,0.188c-0.919,0.047-0.598,1.353,0.215,1.337
				c2.622-0.054,5.255-0.149,7.887-0.224c3.238,0.816,6.65,0.831,10.073-0.111C377.152,620.383,376.809,619.18,376.068,618.83z"/>
			<path style="fill:#272525;" d="M377.293,611.729c-3.626,0.965-6.97,0.791-10.05-1.586c-0.531-0.41-1.077,0.263-0.589,0.715
				c2.934,2.72,7.523,4.094,11.362,2.551C379.102,612.972,378.308,611.459,377.293,611.729z"/>
			<path style="fill:#272525;" d="M382.568,605.86c-4.449-1.195-9.13-1.973-13.678-2.701c-1.027-0.165-1.028,1.187-0.148,1.432
				c4.456,1.245,9.055,2.51,13.617,3.289C383.802,608.127,383.815,606.194,382.568,605.86z"/>
			<path style="fill:#272525;" d="M385.758,597.703c-1.374-0.265-2.747-0.531-4.121-0.796c-0.634-0.123-0.967,0.22-1.037,0.65
				c-1.358-0.013-2.717-0.011-4.075,0.028c-0.808,0.023-0.668,1.195,0.04,1.301c2.973,0.449,5.965,0.756,8.961,1.011l0.005,0.001
				v-0.001c0.099,0.008,0.197,0.02,0.295,0.028C387.22,600.042,386.918,597.927,385.758,597.703z"/>
			<path style="fill:#272525;" d="M384.806,588.244c-1.761,0.863-3.647,1.487-5.432,2.308c-0.62,0.285-0.178,1.105,0.42,0.975
				c2.029-0.442,4.019-1.097,6.053-1.491C387.121,589.789,386.142,587.589,384.806,588.244z"/>
			<path style="fill:#272525;" d="M375.342,666.725c-6.258-1.051-12.843-2.044-19.199-2.117c-0.59-0.007-0.434,0.801,0.028,0.911
				c6.213,1.483,12.854,2.151,19.216,2.675C376.301,668.269,376.124,666.856,375.342,666.725z"/>
			<path style="fill:#272525;" d="M376.565,663.936c-4.75-0.724-9.69-0.676-14.484-0.899c-0.789-0.037-0.664,1.213,0.039,1.283
				c4.776,0.472,9.693,1.253,14.494,1.216C377.61,665.528,377.428,664.068,376.565,663.936z"/>
			<path style="fill:#272525;" d="M388.369,659.283c-5.6,0.463-11.146,1.328-16.692,2.21c-0.881,0.14-0.601,1.407,0.212,1.318
				c5.636-0.617,11.266-1.251,16.841-2.292C389.478,660.379,389.02,659.229,388.369,659.283z"/>
			<path style="fill:#272525;" d="M395.52,652.799c-4.4-0.712-8.798-1.405-13.211-2.039c-1.21-0.174-1.242,1.438-0.176,1.701
				c2.92,0.72,5.836,1.455,8.754,2.186c-3.648,2.158-7.834,2.464-11.836,1.02c1.143-0.408,2.285-0.817,3.435-1.209
				c0.501-0.171,0.129-0.884-0.326-0.758c-1.677,0.461-3.352,0.916-5.041,1.333c-0.596,0.147-0.344,0.875,0.032,1.098
				c5.203,3.078,11.594,2.522,16.378-1.085c0.281-0.212,0.332-0.502,0.273-0.778c0.514,0.076,1.027,0.163,1.542,0.239
				C396.547,654.685,396.618,652.977,395.52,652.799z"/>
			<path style="fill:#272525;" d="M404.102,645.422c-4.674-1.921-9.726-3.243-14.563-4.695c-1.012-0.304-1.324,1.286-0.399,1.612
				c4.766,1.684,9.624,3.616,14.533,4.818C404.786,647.43,405.075,645.822,404.102,645.422z"/>
			<path style="fill:#272525;" d="M406.284,640.661c-5.139-0.905-10.322-1.539-15.492-2.244c-0.647-0.088-0.686,0.817-0.095,0.918
				c5.147,0.882,10.285,1.837,15.463,2.519C407.002,641.965,407.052,640.795,406.284,640.661z"/>
			<path style="fill:#272525;" d="M409.772,639.806c-3.469-1.089-7.157-1.625-10.715-2.362c-0.892-0.185-0.924,1.077-0.131,1.268
				c3.533,0.851,7.104,1.947,10.708,2.435C410.606,641.279,410.581,640.06,409.772,639.806z"/>
			<path style="fill:#272525;" d="M412.361,626.713c0.057-0.09,0.032-0.176,0.051-0.266c2.552,0.224,5.31-1.259,5.699-4.017
				c0.102-0.722-1.215-1.303-1.417-0.491c-0.737,2.965-4.995,4.476-7.131,2.005c-0.399-0.462-1.124-0.061-0.754,0.491
				c0.498,0.743,1.19,1.229,1.945,1.566c-1.555,1.369-3.154,2.022-5.302,1.472c-0.84-0.215-1.117,0.853-0.548,1.331
				c1.674,1.406,3.279,2.89,4.898,4.359c-2.806,0.113-5.618,0.247-8.411,0.484c-0.077,0.007-0.114,0.056-0.176,0.08
				c-1.848-0.802-3.69-1.613-5.532-2.427c-0.623-0.275-0.933,0.587-0.352,0.867c3.928,1.89,7.824,3.849,11.769,5.703
				c0.943,0.443,1.448-0.947,0.538-1.325c-1.108-0.459-2.162-1.027-3.237-1.552c2.558-0.024,5.12-0.042,7.67-0.174
				c0.84-0.043,0.96-1.052,0.39-1.532c-1.586-1.336-3.166-2.677-4.739-4.026C409.562,629.186,411.284,628.417,412.361,626.713z"/>
			<path style="fill:#272525;" d="M416.86,616.966l-1.186,0.028c-0.627,0.015-0.397,0.891,0.146,0.903
				c0.398,0.009,0.797,0.019,1.195,0.028C417.664,617.941,417.454,616.952,416.86,616.966z"/>
			<path style="fill:#272525;" d="M330.107,532.124c-3.501-0.742-7.311-0.75-10.878-0.9c-0.621-0.026-0.489,0.892,0.03,0.986
				c3.541,0.638,7.291,1.477,10.896,1.513C331.178,533.734,330.935,532.3,330.107,532.124z"/>
			<path style="fill:#272525;" d="M329.756,518.08c-1.976,0.404-3.935,0.841-5.89,1.339c-0.662,0.169-0.273,1.214,0.329,1.125
				c2.065-0.307,4.11-0.67,6.159-1.073C331.288,519.286,330.606,517.905,329.756,518.08z"/>
			<path style="fill:#272525;" d="M444.669,648.005c-6.171-4.069-13.474-5.435-20.742-4.29c-0.298,0.047-0.616,0.279-0.523,0.634
				c0.355,1.342,0.986,2.533,1.799,3.544c-0.907,0.266-1.812,0.62-2.708,1.12c-0.439,0.244,0.087,0.854,0.494,0.659
				c0.974-0.468,1.965-0.798,2.958-0.993c0.891,0.874,1.934,1.548,3.086,1.985c-2.137,1.304-4.197,2.781-6.233,4.228
				c-0.328,0.233-0.246,0.66,0.022,0.9c1.506,1.352,2.983,2.73,4.455,4.116c-3.482,0.275-6.957,0.619-10.422,1.082
				c-0.689,0.093-0.462,1.038,0.164,1.017c4.786-0.161,9.557-0.474,14.317-1.002c0.948-0.105,0.63-1.441-0.225-1.393
				c-0.942,0.053-1.88,0.149-2.821,0.218c-1.429-1.417-2.838-2.85-4.231-4.302c2.151-1.348,4.34-2.698,6.359-4.229
				c0.084-0.064,0.088-0.148,0.125-0.224c1.461,0.266,3.009,0.204,4.558-0.359c0.463-0.169,0.551-0.831,0.125-1.112
				c-2.804-1.852-5.796-2.528-8.786-1.996c-0.9-1.129-1.331-2.267-0.217-2.919c0.645-0.378,2.895-0.117,3.521-0.092
				c5.153,0.204,9.829,1.985,14.228,4.583C444.719,649.617,445.383,648.476,444.669,648.005z M433.116,649.749
				c-1.969,0.317-4.048-0.056-5.63-1.259C429.418,648.386,431.331,648.8,433.116,649.749z"/>
			<path style="fill:#272525;" d="M445.411,641.827c-1.983-0.027-3.966,0.002-5.95,0.019c-0.829,0.007-0.536,1.199,0.194,1.205
				c1.985,0.016,3.97,0.046,5.956,0.019C446.469,643.057,446.163,641.837,445.411,641.827z"/>
			<path style="fill:#272525;" d="M452.516,630.867c-3.872,0.017-7.741,0.06-11.612,0.169c-0.635,0.018-0.91,0.768-0.522,1.242
				c1.13,1.378,2.222,2.784,3.324,4.182c-3.714-1.427-7.445-2.858-11.244-3.986c-0.562-0.167-0.658,0.636-0.212,0.858
				c4.478,2.23,9.211,4.047,13.838,5.946c0.828,0.34,1.762-0.527,1.084-1.315c-1.505-1.751-2.981-3.523-4.449-5.305
				c3.358,0.011,6.714-0.005,10.072-0.059C453.985,632.58,453.569,630.862,452.516,630.867z"/>
			<path style="fill:#272525;" d="M470.532,649.41c0.669-0.821-0.641-1.799-1.375-1.133c-2.444,2.217-5.127,3.394-8.458,3.241
				c-0.975-0.045-0.75,1.196-0.162,1.537c0.379,0.21,0.728,0.468,1.099,0.693c-3.481,0.108-7.061,0.596-10.423,1.21
				c-0.759,0.138-0.245,1.192,0.351,1.199c4.216,0.045,8.741-0.121,12.881-0.95c0.775-0.155,0.425-1.133-0.04-1.403
				c-0.343-0.203-0.657-0.45-0.992-0.664C466.179,652.89,468.634,651.742,470.532,649.41z"/>
			<path style="fill:#272525;" d="M465.641,640.519c-2.16,0.152-3.232,2.474-2.544,4.381c0.155,0.431,0.965,0.389,0.845-0.138
				c-0.365-1.6,0.652-2.586,2.061-3.007C466.735,641.536,466.298,640.473,465.641,640.519z"/>
			<path style="fill:#272525;" d="M301.212,651.766c-6.306,2.627-12.619,5.233-18.887,7.947c-0.677,0.293-0.608,0.91-0.25,1.331
				c-3.54,1.151-7.041,2.465-10.385,3.905c-0.971,0.419-0.271,1.746,0.653,1.517c6.186-1.536,12.562-3.591,18.385-6.193
				c0.981-0.438,0.261-1.66-0.646-1.503c-0.216,0.037-0.425,0.058-0.64,0.094c4.21-1.699,8.422-3.392,12.625-5.111
				C303.339,653.232,302.364,651.286,301.212,651.766z"/>
			<path style="fill:#272525;" d="M324.305,634.275c-1.831,4.766-7.766,7.425-12.486,5.179c-0.718-0.342-1.002,0.613-0.399,0.984
				c5.269,3.249,12.686,0.678,14.422-5.418C326.098,634.119,324.681,633.295,324.305,634.275z"/>
			<path style="fill:#272525;" d="M334.919,627.541c-4.31,1.173-9.119,1.947-13.184,3.805c-0.459,0.21-0.246,0.909,0.254,0.867
				c4.54-0.388,9.174-2.045,13.591-3.136C336.602,628.823,335.853,627.286,334.919,627.541z"/>
			<path style="fill:#272525;" d="M348.631,613.631c-4.509-0.661-9.026-1.004-13.564-1.29c-0.761-0.048-0.596,1.09,0.037,1.209
				c4.42,0.828,8.84,1.601,13.322,2.066C349.818,615.759,349.92,613.82,348.631,613.631z"/>
			<path style="fill:#272525;" d="M356.749,605.461c-4.442-0.029-8.885,0.115-13.325,0.235c-0.798,0.022-0.504,1.13,0.185,1.148
				c4.466,0.12,8.933,0.264,13.401,0.236C358.124,607.073,357.733,605.468,356.749,605.461z"/>
			<path style="fill:#272525;" d="M358.451,600.672c-3.957,0.476-7.89,1.223-11.813,1.921c-0.73,0.13-0.291,1.287,0.357,1.217
				c3.984-0.431,7.987-0.824,11.942-1.478C359.927,602.168,359.339,600.565,358.451,600.672z"/>
			<path style="fill:#272525;" d="M368.507,579.522c-2.495,0.854-4.948,1.809-7.383,2.82c-0.751,0.312-0.5,1.341,0.241,1.492
				c0.438,0.089,0.866,0.214,1.3,0.315c-1.964,0.951-3.903,1.957-5.844,2.944c-0.576,0.293-0.294,1.038,0.033,1.365
				c1.294,1.296,2.606,2.558,3.864,3.884c-3.016,0.572-6.023,1.381-8.938,2.293c-0.625,0.195-0.271,1.179,0.319,1.088
				c3.466-0.534,7.03-1.146,10.383-2.173c0.629-0.193,0.526-0.916,0.144-1.285c-1.351-1.304-2.581-2.7-3.835-4.084
				c2.481-1.107,4.994-2.174,7.376-3.472c0.774-0.422,0.218-1.659-0.517-1.753c-0.293-0.037-0.583-0.093-0.875-0.133
				c1.507-0.486,3.024-0.944,4.51-1.495C370.456,580.893,369.583,579.154,368.507,579.522z"/>
			<path style="fill:#272525;" d="M347.23,550.58c-1.693-0.657-5.798-1.623-7.167-2.809c-2.497-2.161-2.044-6.133-2.261-9.041
				c-0.443-5.941-0.923-11.879-1.385-17.818c-0.1-1.28-2.215-1.356-2.116,0.068c0.622,8.912,1.143,17.836,1.993,26.73
				c0.034,0.353,0.34,0.745,0.668,0.874c1.845,0.726,3.661,1.518,5.486,2.29c-2.359,0.228-4.72,0.442-7.076,0.705
				c-1.213,0.136-1.091,1.873,0.062,2.031c2.026,0.278,4.033,0.626,6.044,0.958c-4.487,1.945-8.942,3.991-13.302,6.193
				c-0.498,0.251,0.04,1.038,0.505,0.87c5.54-1.997,11.031-4.197,16.417-6.578c0.845-0.373,0.628-1.611-0.284-1.761
				c-0.547-0.09-1.085-0.207-1.631-0.3c1.275-0.115,2.552-0.202,3.827-0.329C348.145,552.55,348.278,550.987,347.23,550.58z"/>
		</g>
	</g>
</g>
</svg>
